<?xml version="1.0" encoding="UTF-8" standalone="no"?>

<svg
   width="11.8618mm"
   height="12.674606mm"
   viewBox="0 0 11.8618 12.674606"
   version="1.1"
   id="svg1"
   xmlns="http://www.w3.org/2000/svg"
   xmlns:svg="http://www.w3.org/2000/svg">
  <defs
     id="defs1" />
  <g
     id="layer1"
     transform="translate(-97.035136,-134.74534)">
    <path
       d="m 103.61374,141.73034 h 4.445 c 0.5588,0 0.8382,-0.2286 0.8382,-0.6604 0,-0.4064 -0.2794,-0.635 -0.8382,-0.635 h -4.445 v -4.8768 c 0,-0.5334 -0.2286,-0.8128 -0.6604,-0.8128 -0.4318,0 -0.6604,0.2794 -0.6604,0.8128 v 4.8514 h -4.445004 l -0.2286,0.0508 c -0.381,0.0508 -0.5842,0.254 -0.5842,0.6096 0,0.4318 0.2794,0.6604 0.8128,0.6604 h 4.445004 v 4.9022 c 0,0.508 0.2286,0.7874 0.6604,0.7874 0.4318,0 0.6604,-0.2794 0.6604,-0.7874 z"
       aria-label="+" />
  </g>
</svg>
