<?xml version="1.0" encoding="UTF-8" standalone="no"?>

<svg
   width="10.160006mm"
   height="14.096992mm"
   viewBox="0 0 10.160006 14.096992"
   version="1.1"
   id="svg1"
   xmlns="http://www.w3.org/2000/svg"
   xmlns:svg="http://www.w3.org/2000/svg">
  <defs
     id="defs1" />
  <g
     id="layer1"
     transform="translate(-249.62308,-146.31099)"
     style="fill:#2f4f4f;fill-opacity:1">
    <path
       d="m 254.70307,150.12098 c -0.62653,0 -1.13453,-0.16933 -1.524,-0.508 -0.38947,-0.3556 -0.5842,-0.82127 -0.5842,-1.397 0,-0.57573 0.19473,-1.03293 0.5842,-1.3716 0.38947,-0.3556 0.89747,-0.5334 1.524,-0.5334 0.64347,0 1.15147,0.1778 1.524,0.5334 0.38947,0.33867 0.5842,0.79587 0.5842,1.3716 0,0.57573 -0.19473,1.0414 -0.5842,1.397 -0.37253,0.33867 -0.88053,0.508 -1.524,0.508 z m -5.08,4.191 v -1.905 h 10.16 v 1.905 z m 5.08,6.096 c -0.62653,0 -1.13453,-0.16933 -1.524,-0.508 -0.38947,-0.3556 -0.5842,-0.82127 -0.5842,-1.397 0,-0.57573 0.19473,-1.03293 0.5842,-1.3716 0.38947,-0.3556 0.89747,-0.5334 1.524,-0.5334 0.64347,0 1.15147,0.1778 1.524,0.5334 0.38947,0.33867 0.5842,0.79587 0.5842,1.3716 0,0.57573 -0.19473,1.0414 -0.5842,1.397 -0.37253,0.33867 -0.88053,0.508 -1.524,0.508 z"
       style="font-size:25.4px;font-family:'JetBrainsMonoNL NF';-inkscape-font-specification:'JetBrainsMonoNL NF, Normal';fill:#2f4f4f;fill-opacity:1;stroke-width:0.264583"
       id="path1-8"
       />
  </g>
</svg>
