<?xml version="1.0" encoding="UTF-8" standalone="no"?>

<svg
   width="11.8618mm"
   height="13.106395mm"
   viewBox="0 0 11.8618 13.106395"
   version="1.1"
   id="svg1"
   xmlns="http://www.w3.org/2000/svg"
   xmlns:svg="http://www.w3.org/2000/svg">
  <defs
     id="defs1" />
  <g
     id="layer1"
     transform="translate(-73.227731,-131.98629)">
    <path
       d="m 84.251332,139.1745 c 0.5588,0 0.8382,-0.2286 0.8382,-0.635 0,-0.4064 -0.2794,-0.635 -0.8382,-0.635 h -10.2108 c -0.5334,0 -0.8128,0.2286 -0.8128,0.635 0,0.4064 0.2794,0.635 0.8128,0.635 z m -5.0546,3.175 c -0.7874,0 -1.4224,0.6096 -1.4224,1.3716 0,0.762 0.635,1.3716 1.397,1.3716 0.7874,0 1.397,-0.6096 1.397,-1.3716 0,-0.762 -0.635,-1.3716 -1.3716,-1.3716 z m 0,-10.3632 c -0.7874,0 -1.4224,0.6096 -1.4224,1.3716 0,0.762 0.635,1.3716 1.397,1.3716 0.7874,0 1.397,-0.6096 1.397,-1.3716 0,-0.762 -0.635,-1.3716 -1.3716,-1.3716 z"
       aria-label="รท" />
  </g>
</svg>
