<?xml version="1.0" encoding="UTF-8" standalone="no"?>

<svg
   width="9.7789974mm"
   height="16.027397mm"
   viewBox="0 0 9.7789974 16.027397"
   version="1.1"
   id="svg1"
   xmlns="http://www.w3.org/2000/svg"
   xmlns:svg="http://www.w3.org/2000/svg">
  <defs
     id="defs1" />
  <g
     id="layer1"
     transform="translate(-125.85934,-187.57949)">
    <path
       d="m 132.97135,195.30109 c 1.6002,-0.8382 2.3876,-2.0066 2.3876,-3.4798 0,-2.3114 -2.1082,-4.2418 -4.6228,-4.2418 -2.5146,0 -4.6228,1.9304 -4.6228,4.2418 0,1.4732 0.8128,2.6416 2.413,3.4798 -1.7018,0.8128 -2.667,2.1844 -2.667,3.7846 0,2.4892 2.1844,4.5212 4.9022,4.5212 2.6924,0 4.8768,-2.032 4.8768,-4.5212 0,-1.6002 -0.9906,-2.9972 -2.667,-3.7846 z m -2.286,-6.4262 c 1.8796,0 3.3528,1.3208 3.3528,2.9972 0,1.5748 -1.4478,2.794 -3.302,2.794 -1.8542,0 -3.302,-1.2192 -3.302,-2.794 0,-1.651 1.4732,-2.9972 3.2512,-2.9972 z m 0,7.0612 c 2.0828,0 3.6322,1.3462 3.6322,3.1496 0,1.8034 -1.5748,3.2258 -3.556,3.2258 -2.0066,0 -3.5814,-1.4224 -3.5814,-3.2258 0,-1.7526 1.5494,-3.1496 3.5052,-3.1496 z"
       id="text9"
       aria-label="8" />
  </g>
</svg>
