<?xml version="1.0" encoding="UTF-8" standalone="no"?>

<svg
   width="10.515605mm"
   height="15.697201mm"
   viewBox="0 0 10.515605 15.697201"
   version="1.1"
   id="svg1"
   xmlns="http://www.w3.org/2000/svg"
   xmlns:svg="http://www.w3.org/2000/svg">
  <defs
     id="defs1" />
  <g
     id="layer1"
     transform="translate(-185.85042,-173.71238)">
    <path
       d="m 188.51743,175.00778 h 5.9944 c 0.5588,0 0.8382,-0.2286 0.8382,-0.6604 0,-0.4064 -0.2794,-0.635 -0.8382,-0.635 h -7.3152 v 6.8326 c 0,0.4064 0.254,0.6858 0.635,0.6858 0.1524,0 0.2794,-0.0508 0.6096,-0.2032 1.1176,-0.5588 2.1336,-0.8128 3.1496,-0.8128 2.0574,0 3.4544,1.4732 3.4544,3.6322 0,2.54 -1.651,4.2672 -4.064,4.2672 -1.4224,0 -2.7432,-0.5588 -3.9624,-1.651 -0.2286,-0.2032 -0.3556,-0.254 -0.5334,-0.254 -0.3556,0 -0.635,0.2794 -0.635,0.635 0,0.381 0.3556,0.762 1.2446,1.3208 1.2954,0.8382 2.5654,1.2446 3.937,1.2446 3.1242,0 5.334,-2.286 5.334,-5.5118 0,-2.8956 -1.9558,-4.9784 -4.6482,-4.9784 -1.0922,0 -1.9558,0.2032 -3.2004,0.6858 z"
       id="text6"
       aria-label="5" />
  </g>
</svg>
