<?xml version="1.0" encoding="UTF-8" standalone="no"?>

<svg
   width="9.7535868mm"
   height="15.316201mm"
   viewBox="0 0 9.7535868 15.316201"
   version="1.1"
   id="svg1"
   xmlns="http://www.w3.org/2000/svg"
   xmlns:svg="http://www.w3.org/2000/svg">
  <defs
     id="defs1" />
  <g
     id="layer1"
     transform="translate(-141.48615,-174.46157)">
    <path
       d="m 148.36954,185.56137 v 2.921 h -1.8034 c -0.5334,0 -0.8128,0.2286 -0.8128,0.635 0,0.4318 0.3048,0.6604 0.8128,0.6604 h 3.8608 c 0.508,0 0.8128,-0.2286 0.8128,-0.6604 0,-0.4064 -0.2794,-0.635 -0.8128,-0.635 h -0.7366 v -2.921 h 0.7366 c 0.5334,0 0.8128,-0.2286 0.8128,-0.6604 0,-0.4064 -0.2794,-0.635 -0.8128,-0.635 h -0.7366 v -9.8044 h -2.3622 l -5.842,9.7536 v 1.3462 z m 0,-1.2954 h -5.5118 l 5.1308,-8.509 h 0.381 z"
       id="text5"
       aria-label="4" />
  </g>
</svg>
