<?xml version="1.0" encoding="UTF-8" standalone="no"?>

<svg
   width="9.4995975mm"
   height="9.3218069mm"
   viewBox="0 0 9.4995975 9.3218069"
   version="1.1"
   id="svg1"
   xmlns="http://www.w3.org/2000/svg"
   xmlns:svg="http://www.w3.org/2000/svg">
  <defs
     id="defs1" />
  <g
     id="layer1"
     transform="translate(-94.828348,-113.47313)">
    <path
       d="m 99.578153,117.23234 -3.5052,-3.4544 c -0.2286,-0.2032 -0.4064,-0.3048 -0.5842,-0.3048 -0.3556,0 -0.6604,0.2794 -0.6604,0.635 0,0.2032 0.0762,0.3556 0.3048,0.5842 l 3.5306,3.429 -3.5306,3.4544 c -0.2286,0.2286 -0.3048,0.381 -0.3048,0.5842 0,0.3556 0.2794,0.635 0.6604,0.635 0.2032,0 0.3556,-0.0762 0.5842,-0.3048 l 3.5052,-3.4544 3.530597,3.4544 c 0.2286,0.2286 0.3556,0.3048 0.5588,0.3048 0.381,0 0.6604,-0.2794 0.6604,-0.635 0,-0.2032 -0.0762,-0.381 -0.3048,-0.5842 l -3.5052,-3.4544 3.5052,-3.429 c 0.2032,-0.2032 0.3048,-0.381 0.3048,-0.5588 0,-0.381 -0.3048,-0.6604 -0.6604,-0.6604 -0.1778,0 -0.3302,0.0762 -0.5588,0.3048 z"
       id="text1-7"
       aria-label="×" />
  </g>
</svg>
