<?xml version="1.0" encoding="UTF-8" standalone="no"?>

<svg
   width="9.779006mm"
   height="16.027397mm"
   viewBox="0 0 9.779006 16.027397"
   version="1.1"
   id="svg1"
   xmlns="http://www.w3.org/2000/svg"
   xmlns:svg="http://www.w3.org/2000/svg">
  <defs
     id="defs1" />
  <g
     id="layer1"
     transform="translate(-167.73346,-189.59271)">
    <path
       d="m 176.21707,196.62851 c 0.0254,0.254 0.0254,0.4826 0.0254,0.5842 0,1.5494 -0.4064,3.0734 -1.143,4.1402 -1.2192,1.8288 -3.175,2.9718 -5.08,2.9718 -0.4572,0 -0.8382,-0.0762 -1.0922,-0.2032 -0.254,-0.127 -0.3556,-0.1524 -0.508,-0.1524 -0.3556,0 -0.6096,0.2794 -0.6096,0.635 0,0.5842 0.9144,1.016 2.1844,1.016 1.651,0 3.3274,-0.635 4.699,-1.8034 1.905,-1.6002 2.8194,-3.7592 2.8194,-6.7056 0,-4.4196 -2.159,-7.5184 -5.2578,-7.5184 -2.54,0 -4.5212,2.159 -4.5212,4.9276 0,2.6162 1.9812,4.7752 4.3942,4.7752 1.6764,0 3.1496,-0.9652 4.0894,-2.667 z m -0.1778,-1.8542 c -0.5842,1.016 -0.8636,1.4478 -1.2446,1.8542 -0.7874,0.8636 -1.7526,1.3716 -2.667,1.3716 -1.6764,0 -3.0734,-1.5748 -3.0734,-3.4798 0,-2.0574 1.3716,-3.6322 3.175,-3.6322 1.905,0 3.0988,1.2192 3.81,3.8862 z"
       id="text10"
       aria-label="9" />
  </g>
</svg>
