<?xml version="1.0" encoding="UTF-8" standalone="no"?>

<svg
   width="9.7789974mm"
   height="16.027397mm"
   viewBox="0 0 9.7789974 16.027397"
   version="1.1"
   id="svg1"
   xmlns="http://www.w3.org/2000/svg"
   xmlns:svg="http://www.w3.org/2000/svg">
  <defs
     id="defs1" />
  <g
     id="layer1"
     transform="translate(-27.249201,-193.37895)">
    <path
       d="m 28.544601,202.37054 c -0.0254,-0.254 -0.0254,-0.4826 -0.0254,-0.6096 0,-1.524 0.4064,-3.04799 1.143,-4.11479 1.2192,-1.8288 3.174999,-2.9718 5.079999,-2.9718 0.4572,0 0.8382,0.0508 1.0922,0.1778 0.254,0.127 0.3556,0.1524 0.508,0.1524 0.3556,0 0.6096,-0.2794 0.6096,-0.6096 0,-0.5842 -0.9398,-1.016 -2.1844,-1.016 -1.651,0 -3.327399,0.635 -4.698999,1.8034 -1.905,1.6002 -2.8194,3.7592 -2.8194,6.73099 0,4.3942 2.159,7.493 5.257799,7.493 2.54,0 4.5212,-2.159 4.5212,-4.9276 0,-2.6162 -1.9812,-4.7752 -4.3942,-4.7752 -1.676399,0 -3.174999,0.9652 -4.089399,2.667 z m 0.1778,1.8542 c 0.5842,-1.016 0.8636,-1.4478 1.2192,-1.8542 0.8128,-0.889 1.777999,-1.3716 2.692399,-1.3716 1.6764,0 3.0734,1.5748 3.0734,3.4798 0,2.0574 -1.3716,3.6322 -3.175,3.6322 -1.904999,0 -3.124199,-1.2192 -3.809999,-3.8862 z"
       id="text7"
       aria-label="6" />
  </g>
</svg>
