<?xml version="1.0" encoding="UTF-8" standalone="no"?>

<svg
   width="10.490202mm"
   height="16.027414mm"
   viewBox="0 0 10.490202 16.027414"
   version="1.1"
   id="svg1"
   xmlns="http://www.w3.org/2000/svg"
   xmlns:svg="http://www.w3.org/2000/svg">
  <defs
     id="defs1" />
  <g
     id="layer1"
     transform="translate(-93.075243,-169.58468)">
    <path
       d="m 97.850447,176.16328 c -0.5334,0 -0.8128,0.254 -0.8128,0.6604 0,0.4064 0.2794,0.635 0.8128,0.635 2.438403,0.0508 4.394203,1.5748 4.394203,3.4798 0,1.8288 -1.8542,3.3782 -4.089403,3.3782 -1.4224,0 -2.7178,-0.4572 -3.937,-1.3462 -0.2286,-0.1524 -0.3556,-0.2032 -0.5334,-0.2032 -0.3302,0 -0.6096,0.2794 -0.6096,0.6096 0,0.4064 0.3302,0.7366 1.2446,1.1938 1.3208,0.7112 2.5146,1.0414 3.81,1.0414 2.997203,0 5.435603,-2.1082 5.435603,-4.6736 0,-1.651 -1.1684,-3.2258 -2.9464,-4.0132 1.5494,-0.7366 2.413,-1.9304 2.413,-3.3528 0,-2.2606 -2.0066,-3.9878 -4.622803,-3.9878 -1.3462,0 -2.6416,0.4064 -3.6576,1.1684 -0.5842,0.4572 -0.9398,0.889 -0.9398,1.1938 0,0.3302 0.2794,0.6096 0.635,0.6096 0.2032,0 0.3556,-0.0762 0.4826,-0.2286 0.9144,-1.016 1.9558,-1.4478 3.4798,-1.4478 1.879603,0 3.302003,1.1684 3.302003,2.6924 0,0.8128 -0.4572,1.6002 -1.1938,2.0828 -0.609603,0.381 -1.117603,0.508 -2.108203,0.508 z"
       id="text4"
       aria-label="3" />
  </g>
</svg>
