<?xml version="1.0" encoding="UTF-8" standalone="no"?>

<svg
   width="10.287001mm"
   height="15.646397mm"
   viewBox="0 0 10.287001 15.646397"
   version="1.1"
   id="svg1"
   xmlns="http://www.w3.org/2000/svg"
   xmlns:svg="http://www.w3.org/2000/svg">
  <defs
     id="defs1" />
  <g
     id="layer1"
     transform="translate(-43.898347,-168.59031)">
    <path
       d="m 45.320746,182.94131 c 1.3716,-1.1684 2.9464,-2.6162 5.0546,-4.6482 3.2004,-3.048 3.7084,-3.7846 3.7084,-5.2832 0,-2.3622 -2.2606,-4.4196 -4.826,-4.4196 -1.5748,0 -3.048,0.7112 -4.0132,1.9304 -0.508,0.635 -0.8382,1.397 -0.8382,1.8796 0,0.3048 0.2794,0.5842 0.635,0.5842 0.3302,0 0.5334,-0.1778 0.635,-0.5842 0.4318,-1.4732 1.9304,-2.5146 3.5814,-2.5146 1.8796,0 3.5052,1.4478 3.5052,3.0988 0,1.0922 -0.4572,1.7272 -2.8194,4.0132 -2.1082,2.0066 -4.0386,3.7846 -5.8166,5.334 l -0.2286,0.2032 v 1.7018 h 10.287 v -2.0574 c 0,-0.5334 -0.2286,-0.8128 -0.6604,-0.8128 -0.4318,0 -0.6604,0.2794 -0.6604,0.8128 v 0.762 z"
       id="text3"
       aria-label="2" />
  </g>
</svg>
