<?xml version="1.0" encoding="UTF-8" standalone="no"?>

<svg
   width="9.779006mm"
   height="16.027397mm"
   viewBox="0 0 9.779006 16.027397"
   version="1.1"
   id="svg1"
   xmlns="http://www.w3.org/2000/svg"
   xmlns:svg="http://www.w3.org/2000/svg">
  <defs
     id="defs1" />
  <g
     id="layer1"
     transform="translate(-142.12183,-203.04356)">
    <path
       d="m 151.90083,209.79996 c 0,-4.0132 -1.9812,-6.7564 -4.8768,-6.7564 -2.921,0 -4.9022,2.7432 -4.9022,6.7564 v 2.4892 c 0,4.0386 1.9812,6.7818 4.9022,6.7818 2.8956,0 4.8768,-2.7432 4.8768,-6.7818 z m -8.4582,0.1524 c 0,-1.5748 0.4572,-3.2258 1.1938,-4.3688 0.5334,-0.8128 1.3462,-1.2446 2.3876,-1.2446 1.016,0 1.8288,0.4318 2.3622,1.2446 0.7366,1.143 1.1938,2.794 1.1938,4.3688 v 2.2098 c 0,1.5494 -0.4572,3.2258 -1.1938,4.3688 -0.5334,0.8128 -1.3716,1.2446 -2.3622,1.2446 -1.016,0 -1.8542,-0.4318 -2.3876,-1.2446 -0.7366,-1.143 -1.1938,-2.8194 -1.1938,-4.3688 z"
       id="text11"
       aria-label="0" />
  </g>
</svg>
